HIERARCHY
ROOT Hips
{
	OFFSET 0.00000 0.00000 0.00000
	CHANNELS 6 Xposition Yposition Zposition Zrotation Yrotation Xrotation 
	JOINT LHipJoint
	{
		OFFSET 0 0 0
		CHANNELS 3 Zrotation Yrotation Xrotation
		JOINT LeftHip
		{
			OFFSET 3.13874 -1.57224 1.49786
			CHANNELS 3 Zrotation Yrotation Xrotation
			JOINT LeftKnee
			{
				OFFSET 2.10955 -5.79594 0.00000
				CHANNELS 3 Zrotation Yrotation Xrotation
				JOINT LeftAnkle
				{
					OFFSET 2.41843 -6.64458 0.00000
					CHANNELS 3 Zrotation Yrotation Xrotation
					JOINT LeftToe
					{
						OFFSET 0.04713 -0.12948 1.66229
						CHANNELS 3 Zrotation Yrotation Xrotation
						End Site
						{
							OFFSET 0.00000 -0.00000 0.85167
						}
					}
				}
			}
		}
	}
	JOINT RHipJoint
	{
		OFFSET 0 0 0
		CHANNELS 3 Zrotation Yrotation Xrotation
		JOINT RightHip
		{
			OFFSET -3.13988 -1.57224 1.49786
			CHANNELS 3 Zrotation Yrotation Xrotation
			JOINT RightKnee
			{
				OFFSET -2.15006 -5.90725 0.00000
				CHANNELS 3 Zrotation Yrotation Xrotation
				JOINT RightAnkle
				{
					OFFSET -2.34496 -6.44273 0.00000
					CHANNELS 3 Zrotation Yrotation Xrotation
					JOINT RightToe
					{
						OFFSET -0.08699 -0.23900 1.55223
						CHANNELS 3 Zrotation Yrotation Xrotation
						End Site
						{
							OFFSET -0.00000 -0.00000 0.80281
						}
					}
				}
			}
		}
	}
	JOINT lowerback
	{
		OFFSET 0 0 0
		CHANNELS 3 Zrotation Yrotation Xrotation
		JOINT Chest
		{
			OFFSET 0.01292 1.96517 -0.16495
			CHANNELS 3 Zrotation Yrotation Xrotation
			JOINT Chest2
			{
				OFFSET 0.02122 1.88666 0.19706
				CHANNELS 3 Zrotation Yrotation Xrotation
				JOINT lowerneck
				{
					OFFSET 0 0 0
					CHANNELS 3 Zrotation Yrotation Xrotation
					JOINT Neck
					{
						OFFSET -0.01683 1.81591 0.07903
						CHANNELS 3 Zrotation Yrotation Xrotation
						JOINT Head
						{
							OFFSET 0.00815 1.74013 -0.47700
							CHANNELS 3 Zrotation Yrotation Xrotation
							End Site
							{
								OFFSET -0.00204 1.83225 -0.16933
							}
						}
					}
				}
				JOINT LeftCollar
				{
					OFFSET 0 0 0
					CHANNELS 3 Zrotation Yrotation Xrotation
					JOINT LeftShoulder
					{
						OFFSET 3.38482 1.41533 0.19802
CHANNELS 3 Zrotation Xrotation Yrotation
						JOINT LeftElbow
						{
OFFSET 0 -4.327120 0.000000
CHANNELS 3 Zrotation Xrotation Yrotation
							JOINT LeftWrist
							{
OFFSET 0 -3.285870 -0.000000
CHANNELS 3 Zrotation Xrotation Yrotation
								JOINT lhand
								{
									OFFSET 0 0 0
CHANNELS 3 Zrotation Xrotation Yrotation
									JOINT LFingers
									{
OFFSET 0 -0.433160 -0.000000
CHANNELS 3 Zrotation Xrotation Yrotation
										End Site
										{
OFFSET 0 -0.349220 -0.000000
										}
									}
								}
								JOINT LThumb
								{
OFFSET 0 0.000000 0.000000
CHANNELS 3 Zrotation Xrotation Yrotation
									End Site
									{
OFFSET 0 -0.354560 0.354560
									}
								}
							}
						}
					}
				}
				JOINT RightCollar
				{
					OFFSET 0 0 0
					CHANNELS 3 Zrotation Yrotation Xrotation
					JOINT RightShoulder
					{
						OFFSET -3.09725 1.62858 -0.14144
CHANNELS 3 Zrotation Xrotation Yrotation
						JOINT RightElbow
						{
OFFSET 0 -4.291040 0.000000
CHANNELS 3 Zrotation Xrotation Yrotation
							JOINT RightWrist
							{
OFFSET 0 -3.227200 -0.000000
CHANNELS 3 Zrotation Xrotation Yrotation
								JOINT rhand
								{
									OFFSET 0 0 0
CHANNELS 3 Zrotation Xrotation Yrotation
									JOINT RFingers
									{
OFFSET 0 -0.543620 -0.000000
CHANNELS 3 Zrotation Xrotation Yrotation
										End Site
										{
OFFSET 0 -0.438280 -0.000000
										}
									}
								}
								JOINT RThumb
								{
OFFSET 0 0.000000 0.000000
CHANNELS 3 Zrotation Xrotation Yrotation
									End Site
									{
OFFSET 0 -0.444970 0.444970
									}
								}
							}
						}
					}
				}
			}
		}
	}
}
MOTION
Frames: 7
Frame Time: 0.008333333333333333
2.857027 16.723797 1.843140 -62.254559 -94.580179 75.337192 0.000000 0.000000 0.000000 -36.761982 2.664190 10.344307 2.175560 9.103571 26.205504 -2.103791 25.225468 -16.694453 4.674823 -13.006956 -39.396237 0.000000 0.000000 0.000000 16.523976 27.456763 -30.001762 -0.275130 -3.373817 9.321249 -0.601644 -9.703310 -21.231434 -5.168562 13.559256 -41.522113 -2.709279 -1.880862 7.057401 -2.615598 -3.699279 -10.241143 -0.624641 -1.786884 -15.372504 8.948456 5.216882 -16.738880 -7.498819 6.580714 29.766549 -3.459521 2.661097 13.388894 0.000000 0.000000 0.000000 18.777438 -0.253043 -64.760282 134.094400 -51.204526 97.057596 42.011560 13.820637 -14.542817 0.000000 0.000000 0.000000 -7.125000 0.000000 0.000000 14.303003 48.685449 -1.339216 0.000000 0.000000 0.000000 -17.535796 49.567821 39.006181 -20.105876 -30.769676 -5.585388 -27.583218 -3.739215 11.149543 0.000000 0.000000 0.000000 7.125000 0.000000 0.000000 -0.420153 42.515122 -0.027732
2.746881 16.717192 1.840520 -62.998976 -94.634338 76.048375 0.000000 0.000000 0.000000 -36.684546 2.847969 9.966121 2.331980 9.424612 27.209711 -1.970672 24.570003 -16.519960 4.650169 -12.977768 -39.286810 0.000000 0.000000 0.000000 16.507329 27.478590 -29.706886 -0.273789 -3.365652 9.298447 -0.608432 -9.688929 -21.283801 -5.260086 13.660469 -41.913839 -2.669038 -1.886285 6.989203 -2.665893 -3.703337 -10.221230 -0.705124 -1.798851 -15.310411 8.971867 5.233846 -16.814439 -7.550858 6.611742 29.772448 -3.478362 2.669591 13.414182 0.000000 0.000000 0.000000 18.758414 -0.036030 -64.888245 134.101700 -51.201077 97.063287 41.977680 13.447411 -14.199352 0.000000 0.000000 0.000000 -7.125000 0.000000 0.000000 14.221009 48.247047 -1.173449 0.000000 0.000000 0.000000 -17.503488 49.482963 39.098644 -20.105827 -30.769627 -5.585363 -27.683553 -3.635845 11.094628 0.000000 0.000000 0.000000 7.125000 0.000000 0.000000 -0.515760 42.464765 -0.033996
2.636735 16.710587 1.837899 -63.743393 -94.688497 76.759558 0.000000 0.000000 0.000000 -36.607110 3.031749 9.587934 2.488400 9.745654 28.213918 -1.837554 23.914539 -16.345467 4.625514 -12.948580 -39.177383 0.000000 0.000000 0.000000 16.490681 27.500417 -29.412010 -0.272449 -3.357487 9.275645 -0.615220 -9.674548 -21.336169 -5.351611 13.761682 -42.305565 -2.628796 -1.891708 6.921004 -2.716189 -3.707396 -10.201316 -0.785607 -1.810819 -15.248318 8.995278 5.250811 -16.889998 -7.602896 6.642770 29.778346 -3.497203 2.678086 13.439470 0.000000 0.000000 0.000000 18.739390 0.180984 -65.016208 134.109000 -51.197628 97.068978 41.943801 13.074184 -13.855886 0.000000 0.000000 0.000000 -7.125000 0.000000 0.000000 14.139015 47.808645 -1.007682 0.000000 0.000000 0.000000 -17.471181 49.398105 39.191107 -20.105778 -30.769578 -5.585339 -27.783888 -3.532475 11.039714 0.000000 0.000000 0.000000 7.125000 0.000000 0.000000 -0.611367 42.414409 -0.040260
2.526589 16.703981 1.835279 -64.487810 -94.742656 77.470742 0.000000 0.000000 0.000000 -36.529674 3.215529 9.209748 2.644820 10.066695 29.218125 -1.704436 23.259074 -16.170974 4.600860 -12.919393 -39.067956 0.000000 0.000000 0.000000 16.474034 27.522244 -29.117134 -0.271108 -3.349322 9.252844 -0.622009 -9.660168 -21.388536 -5.443135 13.862895 -42.697291 -2.588555 -1.897131 6.852806 -2.766485 -3.711454 -10.181403 -0.866090 -1.822787 -15.186226 9.018689 5.267775 -16.965557 -7.654934 6.673798 29.784245 -3.516044 2.686580 13.464758 0.000000 0.000000 0.000000 18.720366 0.397997 -65.144171 134.116300 -51.194179 97.074670 41.909921 12.700958 -13.512420 0.000000 0.000000 0.000000 -7.125000 0.000000 0.000000 14.057021 47.370242 -0.841915 0.000000 0.000000 0.000000 -17.438873 49.313247 39.283569 -20.105729 -30.769529 -5.585315 -27.884224 -3.429105 10.984799 0.000000 0.000000 0.000000 7.125000 0.000000 0.000000 -0.706974 42.364052 -0.046524
2.416695 16.693885 1.832432 -65.140565 -94.795648 78.072921 0.000000 0.000000 0.000000 -36.443586 3.407800 8.841346 2.805713 10.359531 30.163320 -1.603019 22.773548 -16.155245 4.580248 -12.894809 -38.976094 0.000000 0.000000 0.000000 16.482785 27.536330 -28.792536 -0.272793 -3.359026 9.280020 -0.610927 -9.741763 -21.359975 -5.521907 13.947657 -43.029817 -2.545840 -1.899243 6.814164 -2.815086 -3.711678 -10.162104 -0.945667 -1.832450 -15.144176 9.023931 5.279757 -17.033332 -7.697692 6.700692 29.780489 -3.528480 2.692649 13.482658 0.000000 0.000000 0.000000 18.701086 0.646896 -65.258588 134.091119 -51.205946 97.055002 41.851355 12.351547 -13.339396 0.000000 0.000000 0.000000 -7.125000 0.000000 0.000000 13.973337 47.141662 -0.752002 0.000000 0.000000 0.000000 -17.406759 49.209711 39.373960 -20.119609 -30.786125 -5.592451 -27.939287 -3.429525 10.932857 0.000000 0.000000 0.000000 7.125000 0.000000 0.000000 -0.761182 42.312011 -0.050445
2.307183 16.678493 1.829239 -65.654246 -94.846870 78.509714 0.000000 0.000000 0.000000 -36.344372 3.612956 8.487790 2.973393 10.609571 31.018980 -1.549701 22.545859 -16.380399 4.565770 -12.877211 -38.910881 0.000000 0.000000 0.000000 16.530070 27.538669 -28.422844 -0.279070 -3.395843 9.383024 -0.572733 -9.968977 -21.208625 -5.581330 14.007458 -43.272520 -2.499371 -1.896330 6.820367 -2.861116 -3.706084 -10.143738 -1.023871 -1.838616 -15.132538 9.001604 5.284181 -17.089294 -7.726368 6.721312 29.762087 -3.531197 2.695038 13.489349 0.000000 0.000000 0.000000 18.681416 0.944173 -65.352453 134.016657 -51.240801 96.996858 41.755333 12.038268 -13.424973 0.000000 0.000000 0.000000 -7.125000 0.000000 0.000000 13.887090 47.231431 -0.777181 0.000000 0.000000 0.000000 -17.374939 49.077836 39.461206 -20.154623 -30.827975 -5.610451 -27.925662 -3.587420 10.885426 0.000000 0.000000 0.000000 7.125000 0.000000 0.000000 -0.752578 42.257413 -0.050811
2.197671 16.663101 1.826046 -66.167927 -94.898092 78.946508 0.000000 0.000000 0.000000 -36.245158 3.818111 8.134233 3.141074 10.859612 31.874640 -1.496383 22.318169 -16.605554 4.551292 -12.859613 -38.845669 0.000000 0.000000 0.000000 16.577356 27.541009 -28.053152 -0.285346 -3.432660 9.486028 -0.534539 -10.196191 -21.057274 -5.640754 14.067260 -43.515224 -2.452902 -1.893418 6.826571 -2.907146 -3.700490 -10.125372 -1.102075 -1.844783 -15.120899 8.979277 5.288605 -17.145257 -7.755044 6.741932 29.743685 -3.533915 2.697426 13.496039 0.000000 0.000000 0.000000 18.661746 1.241450 -65.446317 133.942194 -51.275656 96.938714 41.659312 11.724990 -13.510550 0.000000 0.000000 0.000000 -7.125000 0.000000 0.000000 13.800843 47.321200 -0.802359 0.000000 0.000000 0.000000 -17.343119 48.945961 39.548453 -20.189636 -30.869826 -5.628451 -27.912037 -3.745314 10.837994 0.000000 0.000000 0.000000 7.125000 0.000000 0.000000 -0.743974 42.202815 -0.051176
